<svg xmlns="http://www.w3.org/2000/svg" width="273.788" height="235.992" viewBox="0 0 273.788 235.992">
  <path id="Union_4" data-name="Union 4" d="M182.416,234.992q-30.41-.054-60.825-.026-26.744,0-53.49-.016a16.693,16.693,0,0,1-14.886-9.572l.26-.122-.261.119c-1.928-4.225-1.662-8.933-1.428-13.066.05-4.224.031-8.519.012-12.671-.021-4.911-.043-9.988.049-14.925-.044-.432-.045-.891-.046-1.377-.006-1.834-.1-3.074-1.378-3.61-5.989-3.393-12.05-6.886-17.911-10.264q-4.8-2.765-9.584-5.515a11.991,11.991,0,0,1-3.078-2.309l-.122-.125-.017-.174a64.262,64.262,0,0,1-.162-7c.014-1.071.03-2.142.018-3.217q.03-31.271-.01-62.546c-.018-25.627-.037-52.129.012-78.228a25.183,25.183,0,0,1,.876-5.06l-.423,0c-5.39.041-10.963.08-16.424.017-.368.01-2.256.008-3.132-1.019a1.774,1.774,0,0,1-.4-1.434,1.92,1.92,0,0,1,.4-1.78A3.63,3.63,0,0,1,3.485.091C90.241.009,178.223-.01,264.961.041,265.537.013,266.115,0,266.693,0a36.433,36.433,0,0,1,4.581.288l.184.061A2.616,2.616,0,0,1,272.6,3.455a2.426,2.426,0,0,1-2.552,1.784c-4.212.155-8.494.112-12.634.07q-1.875-.019-3.746-.032a23.569,23.569,0,0,1,.831,8.42c-.116,7.87,0,15.873.11,23.615.106,7.374.214,15,.125,22.5q-.024,45.642,0,91.274a65.07,65.07,0,0,1-.524,11l-.034.249-.219.121c-6.611,3.671-13.266,7.535-19.7,11.268-3.888,2.257-8.732,3.128-11.676,6.743s-.1,5.186-.1,7.717c0,2.211,0,4.5-.066,6.748l-.006.2-.14.14q-19.765,19.768-39.5,39.576l-.147.147Zm-110.93-5.275c.825-.015,1.643-.028,2.431-.011,34.782-.025,70.055-.025,104.847,0l.012-6.352c.015-6.824.031-13.88-.038-20.819v-.092l.183-.5c.943-2.594,1.917-5.274,4.07-7.178a13.93,13.93,0,0,1,9.923-3.451q12.137,0,24.291.023c-.005-1.2,0-2.39,0-3.581.034-17.321.034-34.887,0-52.21v-3.112c-10.868-9.72-21.837-19.687-32.446-29.331q-10.515-9.554-21.071-19.107a4.309,4.309,0,0,0-3.43-1.258q-6.506.005-13.009.005l-10.943,0q-12.169,0-24.341,0c-12.534,11.207-25.187,22.7-37.423,33.818q-8.726,7.926-17.457,15.84c-.016,1-.032,1.981-.039,2.969q-.036,23.93-.012,47.856.008,17.507,0,35.026A11.157,11.157,0,0,0,62.331,228l-.262.427h0l.283-.413C65,229.828,68.294,229.771,71.485,229.717ZM185.22,200.152c-1.261,2.079-1.255,4.607-1.251,7.051v.921c.043,2.966.034,5.982.026,8.9-.008,2.964-.016,6.015.029,9.035,7-6.909,14.041-13.971,20.861-20.808q4.346-4.355,8.695-8.708c-3.82-.04-7.682-.04-11.429-.04-3.109,0-6.216,0-9.358-.023q-.307-.022-.613-.022A8.39,8.39,0,0,0,185.22,200.152Zm36.815-24.865h0Zm.4-31.688c.057,5.195.052,10.476.047,15.584,0,4.991-.011,10.143.043,15.224,5.027-3.029,10.2-5.975,15.2-8.828,3.219-1.834,6.438-3.669,9.638-5.535-2.477-2.3-5.067-4.548-7.578-6.724-3.31-2.868-6.732-5.836-9.918-8.951-.861-.824-1.785-1.62-2.678-2.391a44.264,44.264,0,0,1-4.261-4.019A39.028,39.028,0,0,0,222.434,143.6Zm-186.156,7.96c-3.153,2.748-6.408,5.585-9.529,8.48,5.035,2.837,10.107,5.767,15.019,8.6q4.972,2.873,9.951,5.728c.14-3.9.121-7.861.1-11.7-.01-2.171-.02-4.341,0-6.5-.017-1.719-.005-3.439.007-5.16a113.616,113.616,0,0,0-.43-13.361C46.594,142.569,41.354,147.135,36.278,151.558ZM244.744,12.514c-.744.644-1.488,1.287-2.232,1.922-24.942,21.823-50.145,44.022-74.918,65.993q40.775,36.959,81.568,73.9c.1-24.289.085-48.961.068-72.832-.014-20.952-.03-42.617.036-63.92l-.021-2.615c-.014-2.037-.028-4.134-.083-6.211C247.667,9.989,246.185,11.269,244.744,12.514ZM24.926,17.2l.014.3-.181.107c.093,24.517.076,49.434.061,73.535-.014,20.707-.028,42.1.027,63.175,15.1-13.446,30.3-27.259,45-40.626,12-10.911,24.409-22.19,36.7-33.206C99.6,74.133,92.393,67.835,85.42,61.74c-4.688-4.1-9.535-8.334-14.258-12.547q-6.788-5.952-13.549-11.93c-8.476-7.477-17.241-15.21-25.95-22.719q-1.06-.927-2.109-1.869c-1.483-1.326-3.01-2.689-4.583-3.963A79.483,79.483,0,0,0,24.926,17.2ZM161.215,77.53c1.325.233,2.379-.693,3.4-1.583C187.736,55.625,211.159,35,234.235,14.654q5.208-4.626,10.4-9.266c-71.536-.086-143.91-.1-215.154-.033C30.831,6.6,32.231,7.816,33.594,9c2.021,1.751,4.108,3.56,6.035,5.5l.183-.015.159.143C51.837,25.213,64,35.883,75.752,46.2,87.4,56.426,99.446,67,111.21,77.493c12.617.05,25.445.044,37.854.035ZM80.222,205.493a3,3,0,1,1,0-6h50a3,3,0,1,1,0,6Zm87-26a3,3,0,0,1,0-6h34a3,3,0,0,1,0,6Zm-87,0a3,3,0,1,1,0-6h64a3,3,0,0,1,0,6Zm70-26a3,3,0,0,1,0-6h51a3,3,0,0,1,0,6Zm-70,0a3,3,0,1,1,0-6h55a3,3,0,0,1,0,6Zm0-26a3,3,0,1,1,0-6h105a3,3,0,1,1,0,6Z" transform="translate(273.285 235.492) rotate(180)" fill="#fff" stroke="rgba(0,0,0,0)" stroke-miterlimit="10" stroke-width="1"/>
</svg>
