<?xml version="1.0" standalone="no"?>
<!DOCTYPE svg PUBLIC "-//W3C//DTD SVG 20010904//EN"
 "http://www.w3.org/TR/2001/REC-SVG-20010904/DTD/svg10.dtd">
<svg version="1.0" xmlns="http://www.w3.org/2000/svg"
 width="1952.000000pt" height="1952.000000pt" viewBox="0 0 1952.000000 1952.000000"
 preserveAspectRatio="xMidYMid meet">
<metadata>
Created by potrace 1.11, written by Peter Selinger 2001-2013
</metadata>
<g transform="translate(0.000000,1952.000000) scale(0.100000,-0.100000)"
fill="#000000" stroke="none">
<path d="M16089 13896 c-2 -2 -24 -6 -49 -10 -75 -9 -101 -15 -195 -45 -308
-98 -552 -331 -660 -631 -15 -41 -29 -86 -31 -100 -3 -14 -7 -31 -9 -38 -12
-35 -19 -120 -18 -232 1 -100 7 -145 28 -225 22 -85 104 -279 124 -295 4 -3
15 -18 25 -35 74 -116 236 -258 373 -328 37 -19 131 -56 208 -81 147 -50 160
-55 295 -118 157 -73 387 -223 500 -327 251 -230 393 -417 542 -713 26 -53 48
-103 48 -110 0 -8 4 -18 9 -23 8 -9 78 -208 86 -245 2 -8 11 -46 20 -85 25
-105 23 -93 41 -230 5 -42 16 -222 16 -270 -1 -72 -11 -249 -17 -275 -3 -14
-7 -41 -10 -60 -3 -31 -13 -88 -19 -115 -1 -5 -9 -37 -16 -70 -8 -33 -14 -62
-15 -65 -45 -180 -184 -487 -273 -607 -13 -18 -21 -33 -18 -33 4 0 2 -6 -4
-12 -6 -7 -29 -37 -51 -67 -123 -167 -313 -364 -423 -441 -12 -8 -27 -20 -34
-27 -34 -33 -229 -154 -337 -208 -153 -77 -172 -85 -340 -141 -121 -40 -299
-121 -315 -142 -3 -4 -18 -16 -35 -26 -73 -46 -265 -260 -265 -295 0 -5 -3
-11 -7 -13 -28 -12 -103 -219 -130 -358 -20 -106 0 -361 37 -455 6 -16 12 -32
12 -35 1 -9 19 -55 34 -84 8 -16 14 -35 14 -42 0 -7 4 -14 8 -16 5 -1 22 -28
40 -58 38 -66 78 -116 152 -190 131 -132 269 -208 505 -280 60 -18 133 -25
265 -25 132 1 160 3 257 26 27 6 53 12 58 13 6 1 15 4 20 7 6 4 22 9 37 13
100 24 313 155 417 258 93 91 203 246 248 349 45 104 188 262 308 340 77 49
178 100 207 102 10 1 18 4 18 8 0 4 12 9 28 12 29 5 68 13 117 24 17 3 41 7
55 9 44 4 83 15 175 45 241 81 452 245 591 460 79 123 141 281 159 404 2 11 4
20 5 20 12 0 19 288 9 328 -27 99 -29 331 -4 427 52 195 123 325 258 467 104
109 127 135 127 143 0 3 8 15 18 26 78 86 170 308 197 478 14 87 15 304 1 366
-3 14 -8 39 -12 55 -9 50 -47 169 -56 180 -4 5 -8 17 -8 27 0 10 -4 18 -10 18
-5 0 -10 7 -10 15 0 19 -83 159 -128 215 -30 37 -72 83 -178 194 -46 48 -164
254 -164 286 0 5 -5 21 -12 37 -13 33 -12 27 -22 78 -4 22 -10 51 -13 65 -3
14 -6 70 -6 125 -1 92 3 141 19 243 19 115 2 325 -35 450 -5 18 -10 33 -10 35
0 1 -3 11 -6 22 -28 85 -101 225 -157 299 -80 107 -246 266 -277 266 -6 0 -11
5 -11 10 0 6 -6 10 -14 10 -8 0 -16 4 -18 8 -3 8 -143 79 -203 103 -28 11
-136 41 -160 44 -222 31 -386 95 -529 205 -37 28 -156 150 -156 159 0 5 -4 11
-9 13 -4 2 -21 23 -37 48 -30 48 -35 55 -86 152 -18 35 -38 69 -45 76 -7 7
-13 17 -13 21 0 4 -8 17 -17 28 -10 12 -31 38 -48 59 -86 109 -247 236 -379
299 -82 38 -202 80 -252 89 -16 2 -29 5 -29 6 0 8 -317 24 -326 16z"/>
<path d="M6739 12828 c-1 -109 -1 -304 1 -313 1 -5 2 -14 1 -20 -1 -5 -1 -85
-1 -177 l1 -167 -63 33 c-75 39 -160 72 -208 80 -19 3 -53 10 -74 15 -42 10
-283 8 -326 -3 -14 -3 -37 -8 -53 -11 -77 -14 -236 -84 -304 -134 -24 -17 -45
-31 -48 -31 -3 0 -13 -8 -23 -17 -10 -10 -32 -30 -48 -44 -25 -22 -112 -116
-144 -156 -6 -7 -10 -17 -10 -23 0 -5 -4 -10 -8 -10 -16 0 -112 -197 -127
-260 -1 -3 -5 -17 -9 -31 -4 -14 -9 -34 -11 -45 -2 -10 -4 -19 -5 -19 -1 0 -4
-18 -8 -40 -11 -72 -6 -308 8 -370 7 -33 15 -64 16 -70 1 -5 10 -32 19 -60 83
-240 284 -468 505 -572 142 -67 246 -90 402 -91 166 -1 298 34 436 115 41 24
76 43 79 43 3 0 3 -22 1 -50 -3 -27 -2 -51 1 -51 3 -1 115 -3 249 -4 l242 -1
1 60 c0 34 1 602 2 1264 l2 1202 -247 0 -248 0 -1 -42z m-369 -1041 c82 -15
177 -71 247 -145 91 -96 132 -210 131 -363 0 -54 -4 -99 -8 -99 -5 0 -7 -8 -6
-17 7 -44 -60 -168 -129 -238 -229 -234 -572 -197 -762 81 -14 21 -26 43 -28
49 -1 5 -7 21 -13 35 -26 61 -30 77 -35 141 -2 25 -7 50 -10 57 -4 6 -3 13 3
17 6 4 8 10 5 15 -4 6 4 58 19 125 1 6 8 20 14 33 7 12 10 22 6 22 -4 0 0 8 9
18 10 10 14 22 10 25 -3 4 -1 7 5 7 7 0 12 7 12 15 0 17 135 155 152 155 6 0
19 7 29 16 36 32 155 61 242 58 45 -1 93 -4 107 -7z"/>
<path d="M12061 12857 c-6 -8 -8 -17 -5 -20 5 -5 8 -247 4 -272 -2 -6 -2 -14
-1 -20 7 -39 1 -289 -7 -294 -6 -3 -69 -6 -141 -5 -83 0 -132 -4 -134 -10 -2
-6 -3 -110 -3 -231 l1 -220 143 -3 c126 -2 142 -4 143 -20 0 -9 0 -42 -1 -72
-1 -68 -1 -47 -1 -220 0 -80 0 -152 0 -160 1 -181 11 -405 21 -440 6 -25 13
-52 15 -60 5 -24 37 -102 53 -130 33 -54 67 -105 75 -108 4 -2 7 -10 7 -17 0
-7 4 -15 9 -17 5 -1 34 -25 63 -53 29 -27 67 -59 83 -71 45 -31 153 -80 220
-100 64 -18 252 -32 324 -24 l44 5 1 243 1 242 -30 1 c-156 4 -214 9 -241 20
-70 32 -128 104 -140 175 -4 21 -6 125 -5 229 1 244 1 343 0 380 -1 17 0 35 1
40 4 24 2 114 -3 122 -16 26 14 32 147 34 75 0 140 -2 143 -5 3 -3 14 -1 24 5
18 9 19 25 19 237 l0 228 -167 0 c-139 1 -167 3 -164 15 2 8 3 38 2 67 -1 28
-1 59 -1 67 0 22 0 43 0 58 -1 6 0 98 1 204 1 105 -2 196 -6 202 -10 17 -479
15 -494 -2z"/>
<path d="M15 12826 c-2 -12 -3 -586 -2 -1276 l2 -1255 248 -1 c221 -1 247 0
248 15 1 9 2 257 3 551 l1 535 230 2 c240 2 317 6 375 21 52 13 175 64 178 74
2 4 9 8 14 8 12 0 98 63 138 101 69 66 169 224 185 294 3 11 11 47 20 80 19
78 14 248 -9 335 -22 79 -70 181 -116 244 -37 51 -143 146 -201 182 -35 21
-66 39 -69 40 -3 0 -18 6 -35 13 -126 53 -148 54 -703 56 -502 2 -502 2 -507
-19z m1010 -497 c85 -43 135 -128 131 -224 -2 -46 -43 -151 -54 -140 -3 3 -11
-4 -19 -15 -8 -11 -35 -30 -61 -42 -44 -20 -62 -22 -277 -22 l-230 -1 -1 228
c0 172 3 230 12 235 7 4 111 7 232 6 210 -1 220 -2 267 -25z"/>
<path d="M3908 12284 c-3 -2 -22 -6 -44 -9 -21 -3 -46 -9 -54 -12 -8 -3 -24
-7 -35 -8 -44 -5 -193 -72 -273 -122 -96 -61 -211 -174 -280 -278 -41 -61 -78
-130 -83 -153 0 -4 -10 -24 -20 -44 -10 -21 -19 -42 -19 -47 0 -5 -5 -22 -11
-38 -7 -15 -13 -35 -14 -43 -1 -8 -5 -33 -9 -55 -25 -136 -23 -277 6 -405 5
-25 12 -56 14 -70 3 -13 8 -27 12 -30 4 -3 9 -14 10 -25 8 -43 86 -189 141
-263 58 -76 182 -202 200 -202 5 0 11 -4 13 -8 4 -10 110 -73 168 -100 131
-60 241 -81 423 -80 81 1 147 4 147 7 0 4 8 7 18 7 97 3 313 97 410 179 98 82
232 234 232 263 0 7 4 12 9 12 5 0 13 10 17 23 3 12 13 29 21 39 8 9 16 22 17
30 1 7 10 31 20 53 23 53 55 168 63 230 14 98 7 314 -11 365 -3 8 -7 26 -10
40 -13 76 -78 221 -140 315 -46 70 -229 255 -251 255 -8 0 -15 4 -15 8 0 4
-30 24 -67 43 -38 18 -70 37 -73 40 -8 8 -116 45 -190 65 -58 15 -331 30 -342
18z m225 -498 c91 -20 196 -87 257 -162 19 -24 41 -51 48 -58 13 -16 51 -99
59 -131 34 -140 25 -263 -30 -387 -6 -16 -15 -28 -19 -28 -5 0 -8 -6 -8 -13 0
-16 -84 -106 -135 -144 -49 -36 -143 -74 -198 -81 -191 -20 -342 41 -461 188
-24 30 -76 142 -80 172 -2 13 -7 31 -11 41 -10 23 -1 220 11 238 5 8 9 20 10
27 8 52 85 166 156 233 47 44 149 96 203 105 22 3 41 7 42 8 5 4 129 -3 156
-8z"/>
<path d="M10490 12279 c-19 -4 -49 -10 -67 -13 -84 -14 -239 -82 -334 -147
-84 -56 -206 -177 -262 -260 -70 -104 -133 -249 -153 -351 -3 -18 -8 -44 -11
-58 -3 -14 -6 -79 -8 -145 -4 -115 7 -210 35 -316 20 -76 85 -211 128 -266 13
-18 22 -33 19 -33 -3 0 9 -15 26 -34 18 -18 39 -42 48 -52 24 -29 138 -134
146 -134 3 0 21 -11 39 -25 18 -14 36 -25 39 -25 4 0 21 -10 38 -22 18 -13 33
-22 35 -20 1 1 17 -4 35 -12 41 -19 150 -53 202 -63 51 -9 316 -10 375 -1 75
12 163 33 195 48 11 5 49 21 85 36 36 15 72 33 80 39 8 6 27 17 43 25 15 7 27
17 27 22 0 4 5 8 10 8 28 0 173 144 231 228 29 43 59 83 66 90 22 23 15 41
-29 73 -24 16 -52 37 -63 45 -154 112 -259 182 -269 178 -7 -3 -19 -16 -26
-30 -7 -13 -17 -24 -22 -24 -4 0 -8 -5 -8 -10 0 -11 -44 -63 -90 -107 -47 -45
-133 -96 -204 -121 -108 -39 -271 -41 -366 -4 -8 3 -18 6 -21 6 -29 5 -114 62
-165 112 -109 107 -164 246 -157 399 3 61 8 110 13 110 1 0 3 9 5 19 2 10 18
47 35 82 52 107 172 210 285 247 78 26 195 36 265 23 19 -3 46 -8 60 -10 47
-8 155 -57 198 -91 31 -24 95 -90 120 -124 15 -20 33 -42 40 -49 6 -8 17 -22
22 -32 10 -18 12 -18 40 -2 16 9 30 20 30 25 0 4 5 7 11 7 6 0 25 10 42 23 33
23 43 29 116 75 24 15 49 32 56 39 7 7 15 9 19 6 3 -4 6 -2 6 4 0 5 16 18 35
29 19 10 35 22 35 26 0 5 -18 38 -40 74 -22 36 -40 68 -40 71 0 11 -86 110
-139 161 -63 60 -162 127 -236 161 -27 12 -58 27 -67 32 -10 5 -27 9 -37 9
-11 0 -22 4 -25 9 -5 7 -54 19 -156 38 -47 9 -305 11 -340 2z"/>
<path d="M7611 12230 c-13 -10 -6 -1169 8 -1250 28 -160 76 -300 134 -384 34
-51 124 -146 131 -139 3 4 6 2 6 -4 0 -9 76 -66 90 -68 3 -1 20 -9 39 -19 181
-97 462 -101 634 -9 15 8 27 11 27 8 0 -3 6 -1 13 5 20 17 81 55 98 62 13 5
15 -3 15 -45 l-1 -52 248 -3 c136 -1 248 1 248 5 1 5 2 432 3 950 1 628 -2
944 -9 946 -9 2 -460 1 -491 -2 -9 -1 -12 -149 -12 -548 0 -302 -3 -563 -7
-582 -15 -82 -93 -194 -161 -229 -118 -62 -266 -55 -363 17 -71 53 -99 90
-127 167 -16 45 -18 99 -19 606 0 307 -4 561 -9 565 -8 8 -484 11 -495 3z"/>
<path d="M2557 12194 c-1 -1 -23 -5 -50 -8 -26 -4 -58 -11 -72 -16 -14 -5 -25
-8 -25 -6 0 9 -110 -42 -170 -79 -76 -46 -178 -143 -223 -211 -17 -27 -31 -52
-32 -56 0 -4 -6 -13 -12 -19 -7 -7 -13 -20 -13 -29 0 -9 -5 -21 -12 -28 -13
-13 -12 -8 -38 -127 -18 -84 -20 -130 -20 -707 l0 -618 248 0 247 0 1 603 c0
331 4 615 7 630 14 65 67 125 141 157 42 19 66 22 212 22 145 0 164 2 165 17
4 66 4 449 -1 461 -4 13 -31 16 -178 16 -95 -1 -174 -1 -175 -2z"/>
<path d="M15326 10962 c-2 -2 -31 -5 -64 -8 -33 -2 -95 -13 -138 -25 -44 -11
-86 -22 -94 -24 -88 -21 -321 -149 -390 -214 -132 -124 -218 -221 -250 -281
-7 -14 -16 -27 -20 -30 -12 -9 -88 -174 -109 -240 -65 -197 -82 -431 -45 -602
3 -13 7 -34 10 -48 19 -96 95 -281 156 -380 108 -174 299 -347 481 -434 99
-47 146 -68 162 -72 6 -1 46 -12 90 -23 44 -12 109 -25 145 -28 110 -12 287
-6 370 11 112 24 138 31 158 44 12 8 22 12 22 9 0 -8 75 24 154 64 100 51 197
121 281 204 73 73 145 152 145 160 0 2 15 26 34 54 31 48 73 129 111 214 22
51 62 209 73 292 9 65 7 262 -3 320 -2 17 -6 41 -9 55 -43 268 -232 570 -461
739 -38 28 -74 55 -80 59 -5 4 -47 27 -92 50 -106 55 -265 106 -377 122 -85
12 -253 20 -260 12z"/>
<path d="M6407 9198 c2 -5 0 -8 -4 -8 -5 0 -9 -134 -8 -297 l0 -297 -143 1
-142 1 -1 -32 c0 -17 -1 -121 -2 -231 l0 -200 134 -2 c74 -1 139 -2 144 -2 6
-1 11 -145 11 -409 1 -224 5 -427 9 -452 34 -231 174 -431 379 -540 68 -37
143 -65 196 -74 14 -3 25 -5 25 -6 0 -4 93 -10 135 -9 71 1 84 1 95 -1 6 -1
24 -2 40 -1 l31 1 -1 245 c0 212 -2 245 -15 246 -8 0 -63 2 -122 4 -98 3 -111
5 -155 32 -63 39 -110 108 -118 176 -3 28 -5 217 -3 419 l3 368 30 1 c17 0 90
0 163 0 95 0 132 4 133 12 0 7 1 112 2 233 l2 221 -155 1 c-85 0 -160 1 -166
1 -7 1 -10 95 -10 297 1 242 -2 298 -13 302 -11 4 -194 6 -256 3 -11 -1 -66 0
-122 1 -55 2 -99 0 -96 -4z"/>
<path d="M15 9162 c-3 -3 -5 -572 -5 -1265 l0 -1259 25 4 c14 3 25 2 25 -1 0
-6 36 -6 120 -1 19 1 40 1 45 0 20 -4 137 0 145 5 5 3 11 2 14 -3 2 -4 17 -7
33 -6 15 1 44 3 65 3 l36 1 0 556 c0 305 3 559 7 562 4 4 196 8 428 8 232 1
427 2 432 3 10 1 14 485 4 496 -3 3 -200 5 -437 5 l-432 1 -1 62 c-2 152 1
320 5 325 3 2 199 4 435 4 314 0 431 3 432 12 3 32 5 473 1 482 -2 8 -194 11
-687 11 -376 0 -687 -2 -690 -5z"/>
<path d="M2566 8643 c-1 -1 -20 -5 -42 -8 -21 -3 -50 -8 -64 -11 -14 -2 -38
-7 -53 -10 -16 -2 -48 -12 -70 -20 -23 -8 -47 -16 -52 -17 -37 -8 -190 -93
-228 -127 -9 -8 -39 -33 -65 -55 -26 -22 -70 -66 -97 -99 -28 -32 -55 -64 -62
-71 -7 -7 -9 -15 -6 -19 4 -3 2 -6 -4 -6 -5 0 -27 -35 -49 -77 -21 -43 -43
-81 -49 -85 -5 -4 -7 -8 -3 -8 3 0 -4 -27 -17 -60 -13 -33 -22 -60 -20 -60 2
0 0 -14 -5 -32 -30 -103 -32 -323 -5 -458 11 -56 19 -81 26 -86 5 -3 9 -14 9
-25 0 -10 4 -27 8 -37 55 -112 90 -176 109 -198 13 -15 23 -31 23 -36 0 -15
218 -228 234 -228 9 0 16 -4 16 -8 0 -7 167 -101 180 -101 5 0 30 -7 58 -18
22 -8 30 -10 71 -18 19 -3 38 -8 41 -10 20 -12 164 -18 250 -11 103 9 296 64
312 89 4 7 8 9 8 5 0 -4 22 6 49 22 26 17 51 30 55 30 3 0 6 -21 6 -48 l0 -47
245 -1 c166 0 245 3 246 10 1 6 2 435 3 953 l1 942 -177 -2 c-98 -1 -178 1
-178 4 0 4 -15 4 -32 0 -18 -4 -50 -6 -70 -5 l-38 1 0 -48 0 -47 -82 42 c-117
59 -197 83 -313 91 -27 2 -50 4 -50 5 0 2 -116 5 -119 3z m190 -503 c44 -10
116 -41 169 -73 80 -49 181 -196 201 -292 2 -11 7 -31 9 -45 7 -32 7 -157 0
-190 -12 -61 -18 -85 -25 -100 -4 -8 -14 -28 -21 -45 -15 -35 -72 -110 -109
-143 -50 -46 -140 -100 -180 -108 -3 0 -12 -4 -20 -8 -8 -3 -36 -7 -63 -9 -26
-1 -47 -6 -47 -10 0 -5 -4 -6 -9 -2 -6 3 -31 7 -58 9 -129 10 -241 72 -331
181 -45 56 -96 157 -107 215 -20 104 -7 245 30 317 8 14 12 30 9 35 -3 4 -2 8
3 8 4 0 14 13 21 28 19 44 132 154 188 184 96 52 234 71 340 48z"/>
<path d="M4845 8642 c-2 -2 -20 -5 -41 -8 -22 -2 -50 -6 -64 -9 -14 -3 -34 -7
-45 -9 -48 -10 -147 -47 -206 -76 -99 -50 -161 -95 -242 -173 -94 -92 -140
-151 -184 -235 -19 -37 -38 -71 -42 -77 -6 -8 -34 -87 -37 -105 0 -3 -3 -12
-7 -20 -5 -14 -16 -57 -23 -90 -27 -127 -22 -333 11 -459 33 -127 112 -292
172 -357 12 -13 20 -24 16 -24 -3 0 29 -33 70 -74 115 -113 217 -176 402 -246
102 -39 328 -51 486 -25 51 8 189 44 204 53 6 4 19 8 30 9 11 2 22 8 23 13 2
6 9 10 15 10 21 0 109 50 178 101 67 50 219 204 219 223 0 3 7 14 16 24 8 10
26 37 40 59 l24 42 -22 16 c-13 9 -70 50 -128 91 -58 41 -114 81 -125 89 -11
7 -38 27 -60 42 l-39 29 -48 -60 c-107 -134 -202 -212 -298 -241 -53 -16 -93
-25 -125 -29 -22 -2 -44 -5 -50 -6 -5 -1 -12 -1 -15 0 -3 1 -30 3 -60 4 -85 4
-194 43 -238 84 -7 6 -17 12 -20 12 -4 0 -25 17 -47 38 -78 73 -142 193 -160
297 -12 73 -3 211 16 246 4 9 5 19 2 23 -3 3 -1 6 5 6 7 0 12 6 12 14 0 46
118 189 183 222 18 9 34 20 37 23 7 9 82 41 105 46 11 2 20 4 20 5 0 4 58 9
130 11 99 2 176 -13 255 -52 61 -29 73 -37 111 -71 10 -10 19 -15 19 -12 0 3
12 -9 27 -28 15 -18 33 -37 40 -41 7 -4 13 -14 13 -22 0 -7 4 -15 8 -17 4 -1
21 -20 36 -40 28 -37 56 -50 56 -26 0 6 3 9 6 5 3 -3 15 3 27 14 11 10 27 19
34 19 7 0 13 4 13 9 0 5 14 14 30 21 17 7 30 16 30 21 0 4 9 11 20 14 11 3 26
12 32 18 7 7 45 32 83 56 39 24 73 49 77 54 3 6 -3 24 -15 41 -49 72 -57 86
-57 91 0 13 -63 90 -145 179 -74 79 -302 201 -415 222 -14 3 -34 8 -45 11 -24
7 -50 11 -129 18 -33 4 -63 8 -68 11 -4 3 -8 0 -8 -6 0 -6 -5 -8 -12 -4 -12 8
-106 12 -113 6z"/>
<path d="M8399 8646 c-2 -2 -35 -6 -74 -9 -75 -7 -208 -38 -265 -63 -67 -30
-155 -78 -198 -108 -59 -42 -176 -159 -224 -224 -86 -116 -167 -306 -184 -429
-3 -26 -8 -57 -10 -68 -5 -25 -5 -160 0 -200 23 -191 67 -315 163 -462 55 -84
214 -253 238 -253 3 0 14 -8 25 -18 10 -10 42 -29 69 -42 28 -14 51 -28 51
-32 0 -5 6 -8 14 -8 7 0 33 -9 57 -19 57 -25 194 -61 256 -66 98 -10 148 -8
280 10 103 13 291 90 388 159 124 87 263 247 314 361 5 11 21 46 35 77 14 32
28 68 31 80 3 13 13 55 22 93 18 77 24 295 10 380 -5 28 -9 57 -9 65 -1 8 -4
17 -7 20 -4 3 -12 26 -19 52 -17 69 -67 172 -128 264 -55 83 -194 230 -242
255 -15 8 -35 21 -44 29 -33 30 -193 103 -253 116 -5 1 -32 7 -59 13 -27 7
-79 14 -115 17 -36 3 -68 7 -70 9 -1 2 -14 0 -28 -6 -16 -6 -22 -6 -18 1 6 10
2 14 -6 6z m96 -505 c0 -1 15 -4 34 -7 95 -12 235 -115 300 -221 105 -170 107
-391 6 -554 -31 -50 -117 -139 -134 -139 -6 0 -11 -4 -11 -8 0 -5 -26 -20 -57
-35 -87 -39 -124 -48 -208 -48 -75 -1 -112 6 -173 30 -108 43 -215 142 -260
241 -26 57 -30 68 -35 110 -2 14 -6 30 -9 35 -7 12 -3 171 6 205 13 54 49 140
59 140 6 0 8 3 4 6 -13 13 89 128 154 175 14 10 29 16 33 12 3 -3 6 -2 6 4 0
14 73 43 130 52 40 6 155 7 155 2z"/>
<path d="M11000 8593 c0 -3 14 -34 30 -70 17 -35 30 -66 30 -68 0 -3 14 -35
31 -72 58 -127 77 -168 100 -223 13 -30 28 -58 33 -62 6 -4 8 -8 4 -8 -4 0 12
-42 36 -92 23 -51 43 -95 43 -98 0 -3 18 -45 41 -94 23 -49 42 -94 42 -100 0
-7 4 -16 9 -21 5 -6 31 -62 59 -125 27 -63 64 -145 81 -183 17 -37 31 -69 31
-72 0 -2 13 -32 29 -67 16 -35 39 -85 51 -113 12 -27 33 -73 46 -102 25 -53
30 -92 16 -109 -5 -5 -24 -45 -42 -89 -97 -231 -185 -288 -447 -288 -96 0
-143 -4 -144 -11 -4 -56 -3 -460 1 -467 3 -4 96 -7 205 -4 163 3 212 7 267 23
85 26 191 72 201 89 4 7 13 13 20 13 27 1 167 132 216 204 46 66 151 286 151
314 0 6 5 12 10 14 6 2 12 13 13 26 0 12 5 22 9 22 4 0 8 8 8 18 0 10 4 22 8
28 5 5 18 32 30 59 11 28 30 71 42 97 11 26 20 50 20 53 0 3 6 18 14 33 17 29
76 160 76 167 0 2 18 43 40 90 22 47 40 88 40 89 0 2 10 25 22 52 12 27 23 51
23 54 1 3 11 27 23 53 12 27 36 81 53 120 17 40 42 96 55 125 13 29 24 55 24
57 0 2 20 48 45 101 25 53 45 98 45 102 0 3 14 35 31 71 17 36 34 75 39 86 4
11 20 46 34 78 14 32 26 61 26 66 0 8 24 65 76 178 13 28 24 54 24 56 0 2
-121 5 -268 5 l-269 0 -13 -36 c-7 -21 -27 -68 -45 -107 -17 -38 -42 -97 -56
-130 -13 -33 -26 -62 -29 -65 -3 -3 -16 -32 -29 -65 -14 -33 -31 -76 -40 -95
-8 -19 -14 -38 -13 -42 1 -5 -3 -8 -8 -8 -6 0 -10 -6 -10 -14 0 -7 -16 -49
-35 -92 -20 -43 -46 -104 -60 -134 -13 -30 -37 -86 -54 -123 -17 -37 -31 -72
-31 -76 0 -5 -7 -14 -15 -21 -12 -10 -16 -9 -21 6 -9 27 -42 104 -101 234 -14
30 -33 73 -43 95 -10 22 -36 79 -58 128 -23 48 -38 87 -35 87 3 0 -2 9 -12 20
-10 11 -15 20 -11 20 4 0 0 12 -8 28 -15 27 -56 116 -96 207 -13 28 -32 70
-43 95 -11 25 -21 47 -22 50 -13 39 -5 38 -281 38 -145 -1 -264 -3 -264 -5z"/>
<path d="M10407 8544 c-1 -1 -24 -5 -52 -8 -58 -7 -73 -10 -100 -20 -108 -41
-132 -51 -146 -63 -8 -7 -20 -13 -26 -13 -5 0 -18 -9 -28 -20 -10 -11 -22 -20
-28 -20 -8 0 -117 -108 -159 -159 -35 -41 -107 -208 -122 -281 -12 -62 -15
-185 -16 -698 l-1 -624 43 2 c24 1 48 1 53 0 10 -2 129 -1 143 1 4 1 12 0 17
-1 10 -2 128 -1 143 1 4 1 9 1 12 -1 12 -4 80 -5 81 0 1 3 2 280 3 615 l2 610
23 47 c29 60 88 112 147 128 27 8 101 12 187 12 78 0 149 1 157 4 13 3 15 39
15 247 l0 244 -173 -1 c-95 0 -174 -1 -175 -2z"/>
</g>
</svg>
